<?xml version="1.0" encoding="UTF-8" standalone="no"?>
<svg
   width="576"
   height="576"
   viewBox="0 0 691.2 691.2"
   fill="none"
   version="1.1"
   id="svg3"
   sodipodi:docname="dynvol.svg"
   inkscape:version="1.4 (e7c3feb1, 2024-10-09)"
   xmlns:inkscape="http://www.inkscape.org/namespaces/inkscape"
   xmlns:sodipodi="http://sodipodi.sourceforge.net/DTD/sodipodi-0.dtd"
   xmlns="http://www.w3.org/2000/svg"
   xmlns:svg="http://www.w3.org/2000/svg">
  <defs
     id="defs3" />
  <sodipodi:namedview
     id="namedview3"
     pagecolor="#ffffff"
     bordercolor="#000000"
     borderopacity="0.25"
     inkscape:showpageshadow="2"
     inkscape:pageopacity="0.0"
     inkscape:pagecheckerboard="true"
     inkscape:deskcolor="#d1d1d1"
     inkscape:zoom="1.7"
     inkscape:cx="251.47059"
     inkscape:cy="274.70588"
     inkscape:window-width="2456"
     inkscape:window-height="1401"
     inkscape:window-x="114"
     inkscape:window-y="411"
     inkscape:window-maximized="0"
     inkscape:current-layer="layer2"
     showgrid="false" />
  <g
     id="g3"
     transform="matrix(22.032517,0,0,21.613281,119.7667,138.11441)"
     style="display:inline"
     inkscape:label="Volume icon"
     sodipodi:insensitive="true">
    <path
       d="M 11,16.1857 V 3.01412 C 11,2.12321 9.92286,1.67704 9.29289,2.30701 L 6,5.5999 H 4 c -1.10457,0 -2,0.89543 -2,2 v 4 c 0,1.1046 0.89543,2 2,2 h 2 l 3.29289,3.2929 C 9.92286,17.5228 11,17.0766 11,16.1857 Z"
       fill="#ffffff"
       id="path1" />
    <path
       d="m 12.7678,6.77147 c 0.2929,-0.29289 0.7677,-0.29289 1.0606,0 0.3715,0.37144 0.6661,0.8124 0.8671,1.29773 C 14.8965,8.5545 15,9.0746 15,9.5999 c 0,0.5253 -0.1035,1.0454 -0.3045,1.5307 -0.201,0.4853 -0.4956,0.9263 -0.8671,1.2977 -0.2929,0.2929 -0.7677,0.2929 -1.0606,0 -0.2929,-0.2929 -0.2929,-0.7677 0,-1.0606 0.2321,-0.2322 0.4163,-0.5078 0.5419,-0.8111 C 13.4353,10.2533 13.5,9.9282 13.5,9.5999 13.5,9.2716 13.4353,8.9465 13.3097,8.6432 13.1841,8.3399 12.9999,8.0643 12.7678,7.8321 c -0.2929,-0.29286 -0.2929,-0.76773 0,-1.06063 z"
       fill="#ffffff"
       id="path2" />
    <path
       d="m 16.3033,4.2966 c -0.2929,-0.29289 -0.7678,-0.29289 -1.0607,0 -0.2929,0.29289 -0.2929,0.76777 0,1.06066 0.5572,0.55715 0.9991,1.21859 1.3007,1.94654 C 16.8448,8.0318 17,8.812 17,9.5999 c 0,0.7879 -0.1552,1.5681 -0.4567,2.2961 -0.3016,0.728 -0.7435,1.3894 -1.3007,1.9465 -0.2929,0.2929 -0.2929,0.7678 0,1.0607 0.2929,0.2929 0.7678,0.2929 1.0607,0 C 16.9997,14.2068 17.5522,13.38 17.9291,12.47 18.306,11.5601 18.5,10.5848 18.5,9.5999 18.5,8.615 18.306,7.6397 17.9291,6.72978 17.5522,5.81983 16.9997,4.99304 16.3033,4.2966 Z"
       fill="#ffffff"
       id="path3" />
  </g>
  <g
     inkscape:groupmode="layer"
     id="layer1"
     inkscape:label="Top Text"
     sodipodi:insensitive="true">
    <text
       xml:space="preserve"
       style="font-size:183.423px;text-align:start;writing-mode:lr-tb;direction:ltr;text-anchor:start;fill:#ffffff;stroke-width:1.91365"
       x="93.706833"
       y="160.65457"
       id="text3"
       inkscape:label="AUTO"><tspan
         sodipodi:role="line"
         id="tspan3"
         style="font-size:183.423px;stroke-width:1.91366"
         x="93.706833"
         y="160.65457">AUTO</tspan></text>
  </g>
  <g
     inkscape:groupmode="layer"
     id="layer2"
     inkscape:label="Bottom Text"
     transform="matrix(1.6245726,0,0,1.6245726,22.938302,628.50634)">
    <text
       xml:space="preserve"
       style="font-size:115.2px;text-align:start;writing-mode:lr-tb;direction:ltr;text-anchor:start;display:inline;fill:#ffffff;stroke-width:1.20188"
       x="84.566414"
       y="22.905855"
       id="text4"
       inkscape:label="OFF"><tspan
         sodipodi:role="line"
         id="tspan4"
         style="font-size:115.2px;stroke-width:1.20189"
         x="0"
         y="0">OFF</tspan></text>
    <text
       xml:space="preserve"
       style="font-size:115.2px;text-align:start;writing-mode:lr-tb;direction:ltr;text-anchor:start;display:inline;fill:#ffffff;stroke-width:1.20188"
       x="13.241406"
       y="22.905855"
       id="text5"
       inkscape:label="LIGHT"><tspan
         sodipodi:role="line"
         id="tspan5"
         style="font-size:115.2px;stroke-width:1.20189"
         x="13.241406"
         y="22.905855">LIGHT</tspan></text>
    <text
       xml:space="preserve"
       style="font-size:115.2px;text-align:start;writing-mode:lr-tb;direction:ltr;text-anchor:start;display:inline;fill:#ffffff;stroke-width:1.20188"
       x="67.016411"
       y="22.905855"
       id="text6"
       inkscape:label="MEDIUM"><tspan
         sodipodi:role="line"
         id="tspan6"
         style="font-size:115.2px;stroke-width:1.20189"
         x="0"
         y="0">MED</tspan></text>
    <text
       xml:space="preserve"
       style="font-size:115.2px;text-align:start;writing-mode:lr-tb;direction:ltr;text-anchor:start;display:inline;fill:#ffffff;stroke-width:1.20188"
       x="0.95078129"
       y="22.905855"
       id="text7"
       inkscape:label="HEAVY"><tspan
         sodipodi:role="line"
         id="tspan7"
         style="font-size:115.2px;stroke-width:1.20189"
         x="0"
         y="0">HEAVY</tspan></text>
  </g>
</svg>
